<svg version="1.1" xmlns="http://www.w3.org/2000/svg" width="277.5" height="277.5" viewBox="0 0 222 222"><g transform="scale(0.867,0.867)"><rect fill="#CC0000" x="0" y="0" rx="16" ry="16" width="256" height="256" /><rect fill="#ffffff" x="9" y="9" rx="12" ry="12" width="238" height="238" /></g><g transform="translate(15,15) scale(0.094,0.094)"><g transform="translate(0,0)"><g transform="scale(1,-1) translate(0,-820)"><path stroke="none" fill="#CC0000" d="M432 753Q463 780 492 780Q521 780 552 753L582 726H878Q919 726 937 708Q956 690 956 648V-77Q956 -132 920 -132Q884 -132 884 -77V602Q884 626 872 637Q860 648 836 648H570L532 678Q513 694 495 694Q478 694 460 678L424 648H156Q132 648 121 637Q110 626 110 602V-77Q110 -132 73 -132Q36 -132 36 -77V648Q36 690 55 708Q73 726 114 726H402L432 753V753ZM255 548H743Q799 548 799 507Q799 467 743 467H255Q199 467 199 507Q199 548 255 548V548V548ZM211 351H775Q831 351 831 314Q831 278 775 278H530V-77Q530 -132 494 -132Q458 -132 458 -77V278H211Q153 278 153 314Q153 351 211 351V351V351ZM341 152V85Q341 44 329 10Q317 -21 291 -55L253 -103Q217 -146 190 -116Q164 -86 198 -42L239 9Q254 29 261 48Q269 68 269 93V152Q269 209 305 209Q341 209 341 152V152V152ZM719 141V91Q719 67 725 47Q732 26 745 7L779 -38Q813 -85 781 -110Q749 -135 717 -87L687 -42Q665 -10 655 24Q645 58 645 99V141Q645 199 682 199Q719 199 719 141V141V141V142V141Z" /></g></g><g transform="translate(1024,0)"><g transform="scale(1,-1) translate(0,-820)"><path stroke="none" fill="#CC0000" d="M530 722V720H886Q942 720 942 680Q942 640 886 640H102Q46 640 46 680Q46 720 102 720H458V722Q458 763 494 763Q530 763 530 722V722V722ZM36 475Q36 517 55 535Q73 554 114 554H878Q919 554 937 535Q956 517 956 475V379Q956 338 937 319Q919 300 878 300H530V210H878Q919 210 937 192Q956 173 956 131V-77Q956 -132 920 -132Q884 -132 884 -77V85Q884 109 872 120Q860 131 836 131H530V-77Q530 -132 494 -132Q458 -132 458 -77V131H156Q132 131 121 120Q110 109 110 85V-77Q110 -132 73 -132Q36 -132 36 -77V131Q36 173 55 192Q73 210 114 210H458V300H114Q73 300 55 319Q36 338 36 379V475V475ZM836 475H156Q132 475 121 468Q110 462 110 449V407Q110 393 121 386Q132 379 156 379H836Q859 379 872 386Q884 393 884 407V449Q884 462 872 468Q860 475 836 475V475V475V476V475Z" /></g></g><g transform="translate(0,1024)"><g transform="scale(1,-1) translate(0,-820)"><path stroke="none" fill="#CC0000" d="M227 781H878Q919 781 937 762Q956 743 956 702V535Q956 495 937 476Q919 457 878 457H287Q262 457 252 452Q241 446 241 433V397Q241 385 252 379Q263 373 287 373H878Q919 373 937 355Q956 336 956 294V-99Q956 -154 919 -154Q882 -154 882 -99V246Q882 270 870 281Q858 292 834 292H253Q211 292 192 311Q174 330 174 371V451Q174 493 192 511Q211 529 253 529H836Q860 529 872 541Q884 554 884 578V652Q884 676 872 687Q860 698 836 698H590V596Q590 540 553 540Q516 540 516 596V698H227Q169 698 169 739Q169 781 227 781V781V781ZM110 722V220H753Q809 220 809 181Q809 141 753 141H112V71H753Q809 71 809 33Q809 -4 753 -4H110V-30Q110 -50 121 -58Q132 -67 156 -67H755Q813 -67 813 -108Q813 -149 755 -149H114Q73 -149 55 -130Q36 -111 36 -71V722Q36 778 73 778Q110 778 110 722V722V722V723V722Z" /></g></g><g transform="translate(1024,1024)"><g transform="scale(1,-1) translate(0,-820)"><path stroke="none" fill="#CC0000" d="M110 722V694Q110 676 121 667Q132 658 156 658H213V714Q213 770 249 770Q285 770 285 714V660H351Q375 660 387 669Q399 678 399 696V722Q399 778 437 778Q474 778 474 722V672Q474 630 455 612Q437 594 395 594H285V590Q283 554 248 554Q213 554 213 590V592H114Q73 592 55 611Q36 629 36 670V722Q36 778 73 778Q110 778 110 722V722V722ZM586 724V700Q586 682 597 674Q608 666 633 666H705V714Q705 770 741 770Q777 770 777 714V666H836Q860 666 872 674Q884 681 884 696V720Q884 770 920 770Q956 770 956 720V678Q956 637 937 619Q919 600 878 600H777V594Q777 553 741 553Q705 553 705 594V596H594Q553 596 534 615Q516 633 516 674V724Q516 779 551 779Q586 779 586 724V724V724ZM530 515V148H914Q970 148 970 107Q970 67 914 67H530V19H918Q974 19 974 -17Q974 -55 918 -55H530V-89Q530 -144 494 -144Q458 -144 458 -89V-55H88Q32 -55 32 -17Q32 19 88 19H458V67H86Q30 67 30 107Q30 148 86 148H458V515Q458 573 494 573Q530 573 530 515V515V515ZM180 495Q216 515 250 515Q283 515 319 497L397 457Q448 430 430 391Q411 353 361 379L293 415Q272 427 252 427Q232 428 211 417L86 355Q36 329 21 363Q5 398 54 425L180 495V495ZM689 501Q726 519 760 518Q793 518 830 499L938 443Q989 416 973 381Q956 347 906 373L801 425Q780 435 760 435Q740 435 717 425L619 377Q567 353 551 392Q535 431 586 455L689 501V501ZM182 322Q220 339 254 337Q287 336 323 316L393 278Q443 251 424 215Q405 178 355 204L295 236Q274 248 254 249Q233 250 211 240L88 188Q36 165 25 205Q14 244 64 268L182 322V322ZM924 278Q977 256 965 219Q953 183 900 204L795 246Q773 255 752 254Q732 253 709 242L633 206Q581 182 567 221Q552 260 605 282L693 318Q731 335 764 335Q798 335 836 318L924 278V278V279V278Z" /></g></g></g></svg>